<svg width="12" height="13" viewBox="0 0 12 13" fill="none" xmlns="http://www.w3.org/2000/svg">
<path d="M10.9182 6.18359C10.7542 6.34766 10.5354 6.42969 10.3167 6.42969C10.0706 6.42969 9.85181 6.34766 9.68774 6.18359L6.81665 3.3125V11.6797C6.81665 12.1719 6.40649 12.5547 5.94165 12.5547C5.50415 12.5547 5.06665 12.1719 5.06665 11.6797V3.3125L2.16821 6.18359C1.84009 6.53906 1.26587 6.53906 0.937744 6.18359C0.582275 5.85547 0.582275 5.28125 0.937744 4.95312L5.31274 0.578125C5.64087 0.222656 6.21509 0.222656 6.54321 0.578125L10.9182 4.95312C11.2737 5.28125 11.2737 5.85547 10.9182 6.18359Z" fill="white"/>
</svg>
