<svg width="26" height="26" viewBox="0 0 26 26" fill="none" xmlns="http://www.w3.org/2000/svg">
<path d="M13.4417 8.6875C15.9026 8.6875 17.9338 10.7188 17.9338 13.1797C17.9338 15.6797 15.9026 17.6719 13.4417 17.6719C10.9417 17.6719 8.94946 15.6797 8.94946 13.1797C8.94946 10.7188 10.9417 8.6875 13.4417 8.6875ZM13.4417 16.1094C15.0432 16.1094 16.3323 14.8203 16.3323 13.1797C16.3323 11.5781 15.0432 10.2891 13.4417 10.2891C11.801 10.2891 10.512 11.5781 10.512 13.1797C10.512 14.8203 11.8401 16.1094 13.4417 16.1094ZM19.1448 8.53125C19.1448 7.94531 18.676 7.47656 18.0901 7.47656C17.5042 7.47656 17.0354 7.94531 17.0354 8.53125C17.0354 9.11719 17.5042 9.58594 18.0901 9.58594C18.676 9.58594 19.1448 9.11719 19.1448 8.53125ZM22.1135 9.58594C22.1917 11.0312 22.1917 15.3672 22.1135 16.8125C22.0354 18.2188 21.7229 19.4297 20.7073 20.4844C19.6917 21.5 18.4417 21.8125 17.0354 21.8906C15.5901 21.9688 11.2542 21.9688 9.80884 21.8906C8.40259 21.8125 7.19165 21.5 6.13696 20.4844C5.12134 19.4297 4.80884 18.2188 4.73071 16.8125C4.65259 15.3672 4.65259 11.0312 4.73071 9.58594C4.80884 8.17969 5.12134 6.92969 6.13696 5.91406C7.19165 4.89844 8.40259 4.58594 9.80884 4.50781C11.2542 4.42969 15.5901 4.42969 17.0354 4.50781C18.4417 4.58594 19.6917 4.89844 20.7073 5.91406C21.7229 6.92969 22.0354 8.17969 22.1135 9.58594ZM20.2385 18.3359C20.7073 17.2031 20.5901 14.4688 20.5901 13.1797C20.5901 11.9297 20.7073 9.19531 20.2385 8.02344C19.926 7.28125 19.3401 6.65625 18.5979 6.38281C17.426 5.91406 14.6917 6.03125 13.4417 6.03125C12.1526 6.03125 9.41821 5.91406 8.2854 6.38281C7.50415 6.69531 6.91821 7.28125 6.60571 8.02344C6.13696 9.19531 6.25415 11.9297 6.25415 13.1797C6.25415 14.4688 6.13696 17.2031 6.60571 18.3359C6.91821 19.1172 7.50415 19.7031 8.2854 20.0156C9.41821 20.4844 12.1526 20.3672 13.4417 20.3672C14.6917 20.3672 17.426 20.4844 18.5979 20.0156C19.3401 19.7031 19.9651 19.1172 20.2385 18.3359Z" fill="#1E2832"/>
</svg>
