<svg width="26" height="26" viewBox="0 0 26 26" fill="none" xmlns="http://www.w3.org/2000/svg">
<path d="M21.3713 9.11719C21.3713 9.3125 21.3713 9.46875 21.3713 9.66406C21.3713 15.0938 17.2698 21.3047 9.73071 21.3047C7.38696 21.3047 5.23853 20.6406 3.44165 19.4688C3.75415 19.5078 4.06665 19.5469 4.41821 19.5469C6.33228 19.5469 8.09009 18.8828 9.49634 17.7891C7.69946 17.75 6.17603 16.5781 5.66821 14.9375C5.94165 14.9766 6.17603 15.0156 6.44946 15.0156C6.80103 15.0156 7.19165 14.9375 7.50415 14.8594C5.62915 14.4688 4.2229 12.8281 4.2229 10.8359V10.7969C4.76978 11.1094 5.43384 11.2656 6.0979 11.3047C4.96509 10.5625 4.26196 9.3125 4.26196 7.90625C4.26196 7.125 4.45728 6.42188 4.80884 5.83594C6.84009 8.29688 9.88696 9.9375 13.2854 10.1328C13.2073 9.82031 13.1682 9.50781 13.1682 9.19531C13.1682 6.92969 15.0042 5.09375 17.2698 5.09375C18.4417 5.09375 19.4963 5.5625 20.2776 6.38281C21.176 6.1875 22.0745 5.83594 22.8557 5.36719C22.5432 6.34375 21.9182 7.125 21.0588 7.63281C21.8792 7.55469 22.6995 7.32031 23.4026 7.00781C22.8557 7.82812 22.1526 8.53125 21.3713 9.11719Z" fill="#1E2832"/>
</svg>
