<svg width="26" height="26" viewBox="0 0 26 26" fill="none" xmlns="http://www.w3.org/2000/svg">
<path d="M8.5979 20.6797H4.96509V9H8.5979V20.6797ZM6.76196 7.4375C5.62915 7.4375 4.69165 6.46094 4.69165 5.28906C4.69165 3.6875 6.4104 2.67188 7.81665 3.49219C8.48071 3.84375 8.87134 4.54688 8.87134 5.28906C8.87134 6.46094 7.93384 7.4375 6.76196 7.4375ZM22.1526 20.6797H18.5588V15.0156C18.5588 13.6484 18.5198 11.9297 16.6448 11.9297C14.7698 11.9297 14.4963 13.375 14.4963 14.8984V20.6797H10.8635V9H14.3401V10.6016H14.3792C14.887 9.70312 16.0588 8.72656 17.8167 8.72656C21.4885 8.72656 22.1917 11.1484 22.1917 14.2734V20.6797H22.1526Z" fill="#1E2832"/>
</svg>
