<svg width="93" height="33" viewBox="0 0 93 33" fill="none" xmlns="http://www.w3.org/2000/svg">
<rect width="92" height="32" transform="translate(0.94165 0.679443)" fill="#1E2832"/>
<path d="M19.0237 10.9333C19.2151 10.5505 19.5979 10.3044 20.0354 10.3044H31.8479C32.2581 10.3044 32.6409 10.5505 32.8323 10.9333C32.9963 11.3162 32.9417 11.781 32.6682 12.1091L27.6917 18.2068V21.6794C27.6917 22.0349 27.5002 22.3357 27.1995 22.4724C26.8987 22.6091 26.5432 22.5818 26.2698 22.3904L24.5198 21.0779C24.301 20.9138 24.1917 20.6677 24.1917 20.3669V18.2068L19.1877 12.1091C18.9143 11.781 18.8596 11.3162 19.0237 10.9333Z" fill="white"/>
<path d="M42.8323 22.6794H41.5042V11.2576H47.8635V12.4294H42.8323V16.6169H47.5588V17.781H42.8323V22.6794ZM50.8713 14.1169V22.6794H49.5745V14.1169H50.8713ZM50.2385 10.9138C50.4521 10.9138 50.6344 10.9841 50.7854 11.1248C50.9417 11.2602 51.0198 11.4737 51.0198 11.7654C51.0198 12.0518 50.9417 12.2654 50.7854 12.406C50.6344 12.5466 50.4521 12.6169 50.2385 12.6169C50.0146 12.6169 49.8271 12.5466 49.676 12.406C49.5302 12.2654 49.4573 12.0518 49.4573 11.7654C49.4573 11.4737 49.5302 11.2602 49.676 11.1248C49.8271 10.9841 50.0146 10.9138 50.2385 10.9138ZM54.926 22.6794H53.6213V10.5232H54.926V22.6794ZM60.4338 21.7732C60.6474 21.7732 60.8661 21.755 61.0901 21.7185C61.314 21.682 61.4963 21.6378 61.637 21.5857V22.5935C61.4859 22.6612 61.275 22.7185 61.0042 22.7654C60.7385 22.8123 60.4781 22.8357 60.2229 22.8357C59.7698 22.8357 59.3583 22.7576 58.9885 22.6013C58.6187 22.4399 58.3219 22.169 58.0979 21.7888C57.8792 21.4086 57.7698 20.8826 57.7698 20.2107V15.1326H56.551V14.4998L57.7776 13.9919L58.2932 12.1326H59.0745V14.1169H61.5823V15.1326H59.0745V20.1716C59.0745 20.7081 59.1969 21.1091 59.4417 21.3748C59.6917 21.6404 60.0224 21.7732 60.4338 21.7732ZM66.6682 13.9607C67.3974 13.9607 68.0224 14.1222 68.5432 14.4451C69.064 14.768 69.4625 15.2211 69.7385 15.8044C70.0146 16.3826 70.1526 17.0597 70.1526 17.8357V18.6404H64.2385C64.2542 19.6456 64.5042 20.4112 64.9885 20.9373C65.4729 21.4633 66.1552 21.7263 67.0354 21.7263C67.5771 21.7263 68.0562 21.6768 68.4729 21.5779C68.8896 21.4789 69.3219 21.3331 69.7698 21.1404V22.281C69.3375 22.4737 68.9078 22.6143 68.4807 22.7029C68.0588 22.7914 67.5588 22.8357 66.9807 22.8357C66.1578 22.8357 65.439 22.669 64.8245 22.3357C64.2151 21.9972 63.7411 21.5024 63.4026 20.8513C63.064 20.2003 62.8948 19.4034 62.8948 18.4607C62.8948 17.5388 63.0484 16.7419 63.3557 16.0701C63.6682 15.393 64.1057 14.8722 64.6682 14.5076C65.2359 14.143 65.9026 13.9607 66.6682 13.9607ZM66.6526 15.0232C65.9599 15.0232 65.4078 15.2498 64.9963 15.7029C64.5849 16.156 64.3401 16.7888 64.262 17.6013H68.7932C68.788 17.0909 68.7073 16.643 68.551 16.2576C68.4 15.8669 68.1682 15.5649 67.8557 15.3513C67.5432 15.1326 67.1422 15.0232 66.6526 15.0232ZM76.2463 13.9607C76.4182 13.9607 76.5979 13.9711 76.7854 13.9919C76.9729 14.0076 77.1396 14.031 77.2854 14.0623L77.1213 15.2654C76.9807 15.2289 76.8245 15.2003 76.6526 15.1794C76.4807 15.1586 76.3193 15.1482 76.1682 15.1482C75.8245 15.1482 75.4989 15.2185 75.1917 15.3591C74.8896 15.4945 74.6239 15.6925 74.3948 15.9529C74.1656 16.2081 73.9859 16.518 73.8557 16.8826C73.7255 17.2419 73.6604 17.643 73.6604 18.0857V22.6794H72.3557V14.1169H73.4338L73.5745 15.6951H73.6292C73.8062 15.3774 74.0198 15.0883 74.2698 14.8279C74.5198 14.5623 74.8088 14.3513 75.137 14.1951C75.4703 14.0388 75.8401 13.9607 76.2463 13.9607Z" fill="white"/>
</svg>
