<svg width="238" height="265" viewBox="0 0 238 265" fill="none" xmlns="http://www.w3.org/2000/svg">
<path d="M72.913 261.179C74.188 257.836 76.1804 254.815 78.7495 252.329C81.3187 249.843 84.4023 247.952 87.7829 246.789C90.0328 246.011 92.1715 244.826 94.3512 243.84C92.3546 242.907 90.1919 242.384 87.9911 242.303C82.7851 242.117 77.8566 239.895 74.2649 236.113C73.5637 235.054 73.0942 233.859 72.8873 232.606C72.6803 231.353 72.7406 230.071 73.0641 228.844C73.717 226.458 76.5407 227.531 78.3355 228.281C84.1568 230.601 90.5442 232.271 95.5469 235.832C102.102 240.581 109.252 240.57 116.487 241.478C104.963 236.444 95.2954 227.932 88.8368 217.133C87.376 214.603 85.7635 214.641 83.4696 215.643C78.0095 217.979 71.8452 218.064 66.3166 215.877C60.788 213.69 56.342 209.408 53.945 203.963C53.412 202.783 53.1803 200.709 53.8578 199.995C54.4437 199.614 55.1025 199.36 55.7922 199.248C56.482 199.136 57.1878 199.168 57.8647 199.344C61.6072 200.036 65.3007 201.029 69.0069 201.915L69.6938 201.99L69.0852 201.622C68.471 200.834 67.7963 200.096 67.0672 199.414C62.2057 195.08 58.7257 189.41 57.0618 183.113C56.8725 181.668 56.9397 180.202 57.2601 178.782C58.4611 178.932 59.841 178.705 60.8229 179.205C67.6364 182.405 73.6257 187.128 78.3276 193.012C77.341 188.832 76.6686 184.585 76.3163 180.306C76.2444 173.912 74.2018 167.693 70.4677 162.499C68.4481 158.881 66.615 155.162 64.9757 151.357C64.4708 150.482 62.9586 149.321 62.2198 149.5C47.8814 153.016 36.5844 144.729 24.4241 139.793C21.8457 138.801 21.923 136.276 24.5211 134.9C26.6731 133.706 29.0422 132.954 31.4896 132.688C41.0632 132.09 50.61 134.269 58.9849 138.965C57.2897 133.841 55.3979 129.278 54.2743 124.544C52.7829 118.186 52.2942 111.721 55.4104 105.581C56.8618 102.734 59.056 101.988 60.8601 103.997C63.1558 106.385 65.0831 109.101 66.5781 112.057C68.5325 116.305 69.6144 120.902 69.7593 125.573C69.9043 130.245 69.1095 134.897 67.4222 139.253C66.6187 141.242 66.3492 143.407 66.6405 145.534C68.173 152.206 71.0678 158.49 75.143 163.992C76.3471 157.07 77.3515 150.661 78.6814 144.386C81.2068 133.001 85.4251 122.062 91.1954 111.934C91.9365 110.842 92.3241 109.549 92.3058 108.228C92.2875 106.908 91.8642 105.624 91.0931 104.551C89.014 101.336 87.2585 97.9095 85.2351 94.6623C80.3613 86.7353 75.0328 79.3933 64.5084 78.9208C64.1743 78.8859 63.8478 78.7981 63.541 78.6607C57.0058 76.5421 51.501 72.0441 48.1182 66.0585C46.6144 63.4539 47.7381 61.54 50.6933 61.2974C51.6837 61.3281 52.6671 61.4764 53.6229 61.7393C61.4175 63.3165 68.8306 65.7341 74.4228 71.0883C74.7431 66.8227 75.3299 62.5818 76.1796 58.3904C76.6152 56.7002 79.0148 55.538 80.535 54.1394C81.9603 55.3341 83.1556 56.7794 84.0619 58.4038C86.4215 65.922 86.6811 73.3627 82.2071 80.4108C81.9083 81.0477 81.7627 81.7461 81.7821 82.45C81.8015 83.1539 81.9853 83.8436 82.3187 84.4641C86.1301 90.7224 90.1535 96.8335 94.1956 102.934C94.3782 103.25 96.0619 103.121 96.1539 102.895C98.2546 96.9686 101.207 91.146 102.019 85.0464C103.485 73.732 97.5593 65.0977 89.474 57.7846C77.9103 47.3201 56.2764 40.8587 41.2478 51.8425C39.5302 53.0053 38.1873 54.6424 37.3817 56.5551C35.9282 60.2439 33.8833 63.67 31.3273 66.6986C26.6118 71.5332 21.6444 76.1151 16.4459 80.4252C15.3334 81.4148 13.1947 82.5999 12.2929 82.1532C11.5601 81.6783 10.9312 81.0594 10.4443 80.3341C9.95746 79.6088 9.62289 78.7923 9.46087 77.9341C9.03766 75.2175 9.21848 72.4419 9.99042 69.8051C10.7624 67.1684 12.1064 64.7355 13.9267 62.68C17.654 57.8986 23.0072 55.6761 28.3224 53.3019L28.5638 53.1626L28.3224 53.3019L22.3593 53.396C18.4525 53.5158 14.571 52.7121 11.0299 51.05C7.48884 49.3879 4.38786 46.9142 1.97866 43.8297C-1.61063 39.3285 -0.178642 36.3188 5.49037 35.9729C9.65594 35.6242 13.8467 35.6979 17.9987 36.1929C26.116 37.3854 33.5759 40.0985 37.2172 48.4642C38.0685 50.4533 39.1526 49.6289 40.3119 48.9348C52.6819 41.4953 65.4219 41.7304 78.4175 47.1264C80.7537 48.0846 83.0741 49.1014 85.3838 50.0997C85.003 49.4398 84.5363 48.8333 83.996 48.2963C75.0038 41.085 66.2005 33.343 54.343 30.862C45.2801 28.9752 39.4059 22.618 34.2972 15.5708C33.343 14.2612 33.8894 11.8621 33.7358 9.96632C35.3073 9.82872 36.8901 9.88997 38.4469 10.1486C47.8063 12.8184 56.4743 17.4982 63.8467 23.8619C63.6844 21.8223 63.478 20.0066 63.386 18.1745C62.93 12.8154 64.4996 7.4832 67.7842 3.23224C70.9513 -0.803952 74.7125 -0.59413 76.0053 3.91829C77.6091 9.46361 78.6095 15.1653 78.9891 20.924C79.1833 23.188 78.8129 25.4639 77.911 27.5476C77.0092 29.6312 75.6042 31.4573 73.8221 32.862C71.2033 34.8453 71.933 35.4659 74.1136 36.7123C76.163 37.8043 78.0814 39.1269 79.8315 40.6543C83.863 44.2811 87.679 48.1409 91.2599 52.214C93.9044 55.698 96.331 59.3422 98.5256 63.1259C99.1017 60.5308 99.3728 57.8767 99.3334 55.2178C100.143 45.1256 104.536 41.4977 111.225 39.273C114.929 38.0527 116.175 39.268 115.886 43.0564C114.925 52.715 112.425 61.724 104.403 68.1167C103.203 69.0827 102.782 69.5983 103.488 71.2497C105.077 74.7502 105.927 78.5403 105.985 82.3825C106.043 86.2247 105.308 90.0363 103.825 93.5787C100.627 101.378 96.8988 108.988 93.141 116.59C89.0732 124.249 86.1304 132.456 84.4036 140.959C87.1831 139.561 89.7623 137.797 92.0722 135.713C98.1893 129.924 103.833 123.614 110.249 118.173C112.048 116.883 113.402 115.067 114.127 112.974C114.851 110.881 114.911 108.614 114.297 106.484C113.268 101.465 112.717 96.3593 112.651 91.2368C112.7 88.4007 113.31 85.6033 114.445 83.0062C115.581 80.409 117.22 78.0635 119.267 76.1053C121.946 73.368 124.296 73.9213 125.631 77.3921C125.949 78.3344 126.184 79.3022 126.336 80.2847C128.073 89.5456 127.091 99.1079 123.509 107.814L128.578 106.128C134.552 104.167 140.569 103.05 146.444 106.107C147.281 106.491 148.025 107.05 148.628 107.746C149.23 108.442 149.677 109.259 149.938 110.142C149.746 111.07 149.351 111.944 148.782 112.701C148.214 113.458 147.485 114.08 146.648 114.523C142.736 116.716 138.426 118.11 133.97 118.622C129.513 119.134 124.997 118.755 120.686 117.506C119.378 117.02 117.956 116.94 116.604 117.278C115.252 117.615 114.034 118.355 113.111 119.398C107.295 125.237 101.479 131.075 95.5106 136.779C92.4203 139.704 89.4911 142.908 84.8597 143.722C84.2106 143.988 83.6368 144.409 83.1887 144.949C82.7405 145.489 82.4317 146.131 82.2892 146.818C81.3499 156.042 79.8282 165.33 80.1183 174.539C80.4621 191.256 86.1175 207.436 96.264 220.733C99.8278 225.447 107.787 232.114 112.079 233.456C111.221 231.198 110.226 228.746 109.353 226.248C108.318 222.453 105.892 219.186 102.56 217.098C98.2346 214.513 94.8804 210.572 93.0174 205.888C91.2789 201.633 90.5029 197.244 92.6811 192.911C94.7468 188.94 97.6083 188.577 99.4808 192.507C101.74 197.289 103.695 202.208 105.335 207.236C106.383 210.252 106.895 213.454 107.651 216.565L108.727 216.415C108.66 214.668 108.669 212.926 108.535 211.192C107.835 201.873 112.605 197.482 119.617 193.458C121.326 192.472 123.31 192.219 123.193 195.362C123.101 204.767 121.686 213.597 113.247 219.61C112.715 220.043 112.289 220.591 112.001 221.213C111.712 221.835 111.569 222.515 111.581 223.201C113.264 233.194 118.816 238.521 128.753 240.077C130.393 240.351 132.054 240.472 133.715 240.437C160.886 239.633 180.138 226.484 191.848 202.334C196.147 193.995 197.697 184.504 196.277 175.22C195.477 170.447 193.355 166.513 188.856 164.769C182.862 162.45 176.594 160.686 170.414 158.946C169.308 158.617 167.665 159.59 166.488 160.295C161.009 163.458 155.863 167.198 150.303 170.135C144.744 173.072 138.587 174.246 132.802 170.317C131.048 169.122 128.171 167.658 129.32 164.886C130.469 163.224 132.158 162.012 134.1 161.456C140.588 158.926 147.16 156.67 153.5 154.398C150.534 151.621 147.805 149.252 145.362 146.694C145.053 146.236 144.857 145.712 144.79 145.164C144.723 144.615 144.788 144.06 144.979 143.542C145.279 142.947 146.932 142.637 147.886 142.83C156.25 144.451 164.538 146.239 169.707 154.12C170.312 154.92 171.161 155.501 172.124 155.776C178.588 157.749 185.082 159.606 191.719 161.579C186.791 154.501 181.454 147.66 174.048 142.981C168.861 139.701 163.459 136.692 157.134 136.202C145.348 135.217 134.925 138.953 125.334 145.458C124.998 145.761 124.728 146.129 124.54 146.541C124.351 146.952 124.249 147.398 124.239 147.851C124.17 154.464 120.766 159.506 116.727 164.219C112.688 168.932 108.878 173.141 104.826 177.489C103.753 178.379 102.567 179.123 101.298 179.7C100.444 178.395 99.8137 176.956 99.4346 175.443C98.9265 167.385 101.591 159.452 106.859 153.346C107.29 152.849 107.782 152.416 108.184 151.911C108.586 151.406 108.683 151.102 108.517 151.371C104.162 151.206 99.7317 151.21 95.3334 150.797C94.7354 150.622 94.1872 150.307 93.7336 149.879C93.28 149.451 92.9338 148.922 92.7233 148.335C92.4989 147.646 93.5237 146.161 94.3936 145.609C97.45 143.311 100.774 141.392 104.292 139.894C109.783 138.039 115.547 136.87 120.756 141.304C121.216 141.536 121.72 141.664 122.234 141.68C122.748 141.697 123.259 141.6 123.732 141.396C126.488 140.252 129.131 138.825 131.841 137.558C141.837 132.953 152.134 130.803 163.097 133.577C162.267 132.568 161.466 131.567 160.617 130.569C158.163 127.96 156.332 124.829 155.264 121.41C154.195 117.992 153.917 114.376 154.45 110.837C154.932 107.855 156.368 107.125 158.293 108.916C166.076 115.507 171.273 124.646 172.959 134.705C173.06 135.861 173.43 136.977 174.039 137.965C174.648 138.953 175.48 139.785 176.467 140.394C185.56 147.051 193.058 154.976 197.13 165.847C200.001 173.574 200.948 181.883 199.888 190.053C202.24 184.477 204.383 178.924 206.152 173.239C207.212 169.799 209.178 165.613 208.054 162.765C207.101 160.214 202.655 158.861 199.658 157.144C191.274 152.359 186.924 145.296 187.456 135.538C187.571 133.164 187.21 129.751 190.226 129.399C191.782 129.22 194.096 131.556 195.372 133.25C199.389 138.621 203.093 144.222 207.139 150.071C206.566 146.403 207.242 142.65 209.057 139.416C210.872 136.182 213.721 133.654 217.148 132.237C218.39 131.644 220.64 130.866 221.113 131.386C222.001 132.628 222.42 134.144 222.296 135.665C221.632 145.152 217.78 153.577 213.758 162.051C211.515 166.744 209.942 171.696 208.051 176.484C211.537 175.017 214.066 173.135 216.823 171.692C219.505 170.186 222.461 169.232 225.519 168.885C228.576 168.538 231.672 168.807 234.626 169.674C235.208 169.893 235.737 170.232 236.181 170.668C236.624 171.104 236.972 171.627 237.202 172.205C237.426 172.894 236.422 174.243 235.649 174.962C234.043 176.418 232.327 177.749 230.518 178.942C224.972 182.59 219.364 186.944 212.364 186.099C206.513 185.359 203.969 187.3 201.92 192.501C200.118 197.014 196.417 200.639 194.354 205.13C188.219 218.445 177.984 229.44 165.146 236.504C149.689 244.858 132.721 246.22 115.502 244.875C112.366 244.518 109.254 243.97 106.185 243.234C103.87 242.785 102.455 242.907 101.579 245.893C100.36 249.063 98.5691 251.98 96.296 254.5C90.7279 260.939 82.096 261.086 74.8681 264.093C72.6562 265.023 71.9661 263.313 72.913 261.179ZM70.9349 206.284C66.8859 204.976 62.648 204.198 57.7028 203.009C61.9743 211.78 74.1181 216.601 82.4865 213.382C83.0127 213.056 83.4757 212.638 83.8532 212.147C83.4091 211.692 82.9069 211.298 82.3596 210.975C78.4768 209.397 74.7631 207.597 70.8421 206.338L70.9349 206.284ZM60.5594 182.781C63.9554 193.595 71.2576 199.252 80.3738 204.233C76.787 194.075 69.8026 188.11 60.4666 182.834L60.5594 182.781ZM60.9296 108.149C60.3646 107.411 59.5517 106.902 58.6415 106.717C58.322 106.678 57.5671 107.858 57.2677 108.626C54.9524 115.768 56.4123 122.714 58.7761 129.51C59.9404 132.857 61.5378 136.052 63.3291 140.227C68.4697 128.329 67.4393 118.009 60.8474 108.222L60.9296 108.149ZM74.3319 75.6058C68.3679 68.8787 60.6874 65.6977 51.4502 64.5813C52.3684 66.6997 53.7033 68.6119 55.3754 70.2037C57.0475 71.7955 59.0224 73.0343 61.1822 73.846C64.9799 75.4486 68.988 76.5578 72.9169 77.787C73.6944 77.9049 74.4855 77.9002 75.2613 77.773C75.0129 77.0037 74.6377 76.2813 74.1511 75.6357L74.3319 75.6058ZM82.2289 73.3286C83.6696 68.1936 83.1477 62.7027 80.7649 57.926C79.7056 60.1973 78.9151 62.5851 78.4096 65.0408C78.3425 67.8456 78.6063 70.6491 79.1955 73.3931C79.4874 74.6944 79.8702 75.9737 80.3411 77.2215C81.0357 75.9934 81.6075 74.6995 82.0481 73.3586L82.2289 73.3286ZM16.3217 65.2413C14.7597 68.0948 13.5214 71.1145 12.6297 74.2441C12.2921 75.3321 12.9725 76.7252 13.184 77.9922L16.5445 76.3497C22.5635 71.163 29.4434 66.2235 33.4398 58.4341C33.952 57.5984 34.3282 56.6863 34.554 55.7319C34.608 55.3535 33.2217 54.3678 33.0731 54.4536C27.3986 58.3499 19.8874 59.0649 16.1409 65.2713L16.3217 65.2413ZM25.7037 41.5179C19.353 38.7102 12.5379 38.7008 5.73236 39.0083C4.96844 39.1649 4.23547 39.4456 3.56256 39.8393C3.78516 40.7107 4.14714 41.5404 4.63447 42.2964C8.31783 46.6352 13.559 49.3488 19.222 49.8492C23.1191 50.0798 27.1493 49.8119 31.0864 50.069C35.0235 50.3261 34.1779 48.9042 33.0171 46.2504C30.6605 44.4674 28.1529 42.8938 25.5229 41.5479L25.7037 41.5179ZM62.6349 28.2824C59.0747 25.1191 55.3299 22.1704 51.4203 19.452C47.6875 17.283 43.8078 15.3785 39.8095 13.7526C39.0329 13.5403 38.2309 13.4358 37.4262 13.4418L37.7877 15.9121C41.4801 20.9369 46.5483 24.7837 52.3776 26.986C55.4056 27.9416 58.3329 28.9801 61.3316 29.9279C61.7964 30.0031 62.2692 30.0139 62.7368 29.96C62.7126 29.4034 62.8254 28.5693 62.4913 28.2909L62.6349 28.2824ZM70.6126 31.2918C72.6889 29.2362 74.3399 26.7911 75.4716 24.0959C77.3868 17.8057 75.008 11.7126 73.4892 5.69347C72.594 3.45682 71.0118 3.67575 70.243 5.26068C68.4691 8.21179 67.296 11.4856 66.7911 14.8938C66.8938 20.0039 67.3542 25.1009 68.1691 30.1476C68.1819 32.0999 69.3025 32.6684 70.469 31.3003L70.6126 31.2918ZM85.6085 50.3172C85.7481 50.5591 86.0178 50.7259 86.2317 50.9249C86.1672 50.8132 86.2406 50.5972 86.2006 50.5707C86.0093 50.4726 85.8115 50.3878 85.6085 50.3172ZM104.373 64.2894C108.189 59.9042 110.801 54.6011 111.954 48.8986C112.137 48.0919 112.252 47.2708 112.295 46.4443C112.365 45.0644 112.321 43.7009 112.38 42.3024L107.109 43.3367C105.353 46.263 103.918 49.3705 102.827 52.6053C102.277 56.198 102.105 59.839 102.314 63.4687C102.378 64.0455 102.536 64.608 102.781 65.1343C103.362 64.9604 103.903 64.6733 104.373 64.2894ZM144.15 112.169C144.95 111.64 145.715 111.058 146.437 110.427C145.532 109.759 144.631 108.543 143.727 108.519C139.504 108.274 135.267 108.451 131.081 109.048C127.491 110.121 124.011 111.532 120.687 113.263L121.133 114.42C128.937 115.371 136.76 116.312 144.129 112.132L144.15 112.169ZM121.565 103.975C124.182 96.2707 124.725 88.0094 123.138 80.0222C122.662 78.953 122.075 77.9365 121.387 76.9897C119.631 80.0918 118.035 83.282 116.605 86.5479C114.489 92.2342 115.791 98.0064 116.771 103.692C117.136 105.739 117.737 107.723 118.234 109.743C119.524 107.93 120.639 105.999 121.565 103.975ZM58.7351 142.607C51.1215 137.835 42.2539 135.461 33.2834 135.794C31.2136 135.898 29.1799 136.278 27.1188 136.526C36.5615 141.344 45.6277 146.925 56.5314 147.153C56.8607 147.199 57.1955 147.183 57.5184 147.104C59.1331 146.47 60.7155 145.779 62.3087 145.108C61.1499 144.185 59.9427 143.325 58.6921 142.532L58.7351 142.607ZM114.081 214.837C116.103 212.683 117.672 210.145 118.696 207.373C119.719 204.6 120.177 201.65 120.041 198.695C120.045 198.445 118.645 197.864 118.178 198.084C116.51 198.807 115.059 199.951 113.967 201.404C112.874 202.856 112.177 204.568 111.943 206.372C111.731 209.303 111.717 212.245 111.901 215.178C112.912 215.041 113.745 215.155 114.135 214.93L114.081 214.837ZM148.815 159.708C144.277 161.112 139.826 162.839 135.34 164.462C134.611 164.763 133.903 165.113 133.222 165.511C133.669 166.319 134.267 167.035 134.984 167.619C137.197 168.746 139.665 169.273 142.143 169.147C144.622 169.022 147.023 168.25 149.108 166.906C154.487 163.999 159.694 160.794 165.042 157.706C159.244 155.597 154.059 158.069 148.815 159.708ZM150.831 145.744L150.236 147.03C154.102 150.851 158.479 153.458 164.138 153.094L164.661 151.899L150.831 145.744ZM116.226 142.207C110.622 140.606 105.532 142.428 99.8957 144.889L98.0457 147.346C99.1303 147.637 100.318 148.365 101.304 148.143C106.394 146.966 111.443 145.589 116.492 144.212C116.931 143.995 117.319 143.686 117.629 143.307C117.164 142.931 116.754 142.349 116.226 142.207ZM116.087 149.729C108.395 155.535 102.428 163.172 102.953 174.503C109.489 167.38 116.498 161.721 120.079 153.254C120.662 151.406 121.075 149.507 121.31 147.582C119.477 148.055 117.708 148.751 116.044 149.655L116.087 149.729ZM157.647 112.215C156.926 120.917 160.649 127.45 170.12 134.633C168.013 126.16 163.693 118.398 157.604 112.141L157.647 112.215ZM215.191 151.624C216.859 146.791 218.171 141.817 219.553 136.876C219.617 136.08 219.555 135.278 219.371 134.501L217.479 134.998C212.084 139.08 209.417 144.068 210.354 150.622C210.71 153.169 211.229 155.697 211.681 158.239C213.044 156.142 214.219 153.928 215.191 151.624ZM192.896 135.052C192.378 134.573 191.831 134.126 191.257 133.715C190.947 134.285 190.726 134.898 190.599 135.534C190.459 141.94 192.019 147.688 197.453 151.695C199.996 153.526 202.678 155.127 205.981 157.288C203.605 148.845 199.096 141.154 192.89 134.956L192.896 135.052ZM209.795 183.365C216.1 184.165 221.301 181.336 226.239 177.964C228.523 176.645 230.808 175.327 233.092 174.008C233.467 173.73 233.803 173.402 234.09 173.034C233.612 172.739 233.101 172.502 232.567 172.326C228.029 171.252 223.254 172.013 219.278 174.442C215.712 176.501 212.337 178.847 208.907 181.099C208.413 181.534 207.975 182.029 207.603 182.572C208.301 182.891 209.035 183.125 209.789 183.269L209.795 183.365ZM103.651 211.482C101.778 206.436 99.9235 201.38 97.9654 196.359C97.4995 195.565 96.9111 194.85 96.222 194.24C95.6243 195.137 95.1748 196.126 94.8907 197.167C94.2888 203.715 97.7452 208.244 102.159 212.244L103.651 211.482ZM76.5929 230.924C76.1398 231.371 75.8036 231.923 75.614 232.531C77.5149 234.237 79.2973 236.681 81.5573 237.335C86.0936 238.434 90.6949 239.24 95.3332 239.751C90.2726 234.288 83.2694 232.924 76.5558 230.946L76.5929 230.924ZM96.153 239.798L95.7514 239.832L95.8265 239.962C95.8265 239.962 96.0416 239.863 96.1159 239.82L96.153 239.798ZM98.014 245.595C90.977 250.005 81.9003 250.582 77.5186 258.991C88.1062 258.286 95.848 253.295 97.9769 245.616L98.014 245.595Z" fill="black" fill-opacity="0.1"/>
</svg>
