<svg width="148" height="125" viewBox="0 0 148 125" fill="none" xmlns="http://www.w3.org/2000/svg">
<g clip-path="url(#clip0_505_823)">
<path d="M1.10388 66.3835C9.76271 63.3487 18.4283 60.4207 26.9452 56.9975C35.3241 53.6058 43.3175 49.334 50.7926 44.253C65.0204 34.5445 77.6065 22.3255 93.1287 14.5258C100.867 10.4322 109.411 8.08597 118.167 7.65057C118.311 7.66073 118.448 7.71549 118.559 7.80728C118.671 7.89906 118.751 8.0233 118.789 8.16264C118.827 8.30198 118.821 8.44948 118.772 8.58467C118.722 8.71986 118.632 8.83597 118.514 8.91684L95.8818 19.77C88.339 23.4055 80.9571 27.2248 73.3251 30.8011C72.2538 31.4196 71.2149 29.6677 72.3548 29.1203C79.8856 25.464 87.543 22.122 95.151 18.5042L117.843 7.75482C118.046 8.10758 118.065 8.56738 118.177 9.00037C101.461 9.35535 86.9486 18.9515 74.5075 29.2331C67.6481 34.9087 60.9942 40.7977 53.7529 46.0022C46.5389 51.0995 38.7664 55.3549 30.585 58.6865C21.1402 62.4957 11.4782 65.746 1.64841 68.4209C0.40075 68.7815 -0.0718931 66.8687 1.13982 66.4458L1.10388 66.3835Z" fill="black" fill-opacity="0.1"/>
<path d="M2.77556 65.806C16.9671 63.8376 28.9717 54.0846 43.7409 55.0198C50.886 55.7557 57.917 57.3846 64.6703 59.8686C71.7611 62.2069 78.7134 64.9552 85.4921 68.0995C93.1037 71.7085 100.507 75.7476 107.667 80.1971C107.835 80.2985 107.965 80.4513 108.04 80.6327C108.114 80.8141 108.129 81.0144 108.081 81.2039C108.032 81.3933 107.925 81.5616 107.773 81.684C107.622 81.8063 107.434 81.876 107.24 81.8827C99.6538 81.7803 91.8619 81.7968 85.053 78.0918C78.2441 74.3868 73.3261 67.8194 66.5344 64.049C66.351 63.9458 66.2155 63.7739 66.1577 63.5712C66.0999 63.3685 66.1246 63.1516 66.2263 62.9681C66.328 62.7847 66.4984 62.6497 66.7001 62.5929C66.9017 62.5362 67.118 62.5623 67.3015 62.6655C73.8171 66.2908 79.0163 71.7276 85.4117 75.4777C91.8071 79.2278 99.7729 79.9408 107.321 80.1204C107.174 80.6754 107.007 81.2423 106.873 81.818C100.638 78.0473 94.1753 74.6724 87.5235 71.7131C80.7749 68.602 73.8567 65.8806 66.8027 63.5621C60.0822 61.1374 53.1541 59.348 46.1091 58.2176C39.1228 57.4425 32.0632 58.3418 25.511 60.8415C18.1549 63.3732 10.9143 66.7235 3.055 67.194C2.28981 67.2484 2.10284 65.973 2.86467 65.8652L2.77556 65.806Z" fill="black" fill-opacity="0.1"/>
<path d="M35.6132 54.7875C41.8595 56.5171 48.2263 57.7622 54.6571 58.5115C60.6255 59.0536 66.6361 58.5943 72.4418 57.1523C83.217 54.5003 93.2321 49.4374 103.98 46.6905C109.822 45.0699 115.932 44.626 121.96 45.3844L121.474 47.1592C105.923 42.9892 89.4257 44.6444 75.0737 51.8147C70.9978 53.8391 67.1778 56.3418 63.6933 59.2705C63.5803 59.3904 63.4428 59.4841 63.29 59.5453C63.1372 59.6066 62.9729 59.6339 62.8082 59.6254C62.6435 59.6168 62.4824 59.5726 62.3358 59.4959C62.1893 59.4192 62.0608 59.3118 61.9592 59.1808C61.8576 59.0499 61.7852 58.8986 61.7471 58.7374C61.709 58.5762 61.7059 58.4089 61.7382 58.2468C61.7705 58.0848 61.8374 57.9319 61.9342 57.7986C62.0311 57.6653 62.1556 57.5548 62.2993 57.4746C75.3796 47.3907 91.625 42.3047 108.154 43.1189C112.805 43.3718 117.42 44.1103 121.924 45.3222C123.097 45.641 122.58 47.2674 121.438 47.0969C110.161 45.5013 99.2669 49.6606 88.924 53.5847C78.5811 57.5089 67.6464 61.3596 56.1522 60.3873C49.0659 59.5715 42.0621 58.1246 35.2238 56.0637C34.356 55.8453 34.7095 54.5069 35.5773 54.7252L35.6132 54.7875Z" fill="black" fill-opacity="0.1"/>
<path d="M1.69753 66.3176C6.6428 65.0233 11.8226 64.8702 16.8494 65.8698C22.1052 66.7561 27.2785 68.092 32.3127 69.8627C43.6864 73.6713 55.2508 77.2867 66.2508 82.1134C72.0723 84.4777 77.5421 87.6425 82.5027 91.5164C83.0648 91.9666 82.2814 92.7508 81.7399 92.2888C77.3343 88.8596 72.4642 86.0807 67.2792 84.0374C62.1288 81.9202 56.732 80.4709 51.4628 78.6714L34.321 72.7703C29.5183 71.0511 24.6195 69.6203 19.6507 68.4856C16.7862 67.8447 13.8719 67.4624 10.9427 67.3434C8.03061 67.3308 5.12422 67.565 2.25445 68.0435C2.04072 68.0743 1.82263 68.0251 1.64168 67.9054C1.46072 67.7857 1.32944 67.6038 1.27279 67.3941C1.21614 67.1845 1.23806 66.9617 1.33438 66.7681C1.43069 66.5746 1.59471 66.4237 1.79527 66.3441L1.69753 66.3176Z" fill="black" fill-opacity="0.1"/>
</g>
<defs>
<clipPath id="clip0_505_823">
<rect width="132.34" height="66.6102" fill="white" transform="matrix(-0.866025 0.5 0.5 0.866025 114.61 0.823242)"/>
</clipPath>
</defs>
</svg>
