<svg width="250" height="50" viewBox="0 0 250 50" fill="none" xmlns="http://www.w3.org/2000/svg">
<g id="logo-footer">
<g id="Group 3">
<g id="Group 2">
<path id="Vector" d="M98.5257 36.5281H94.8926V34.6587H104.038V36.5281H100.405V45.7507H98.4004V36.5281H98.5257ZM113.058 45.7507H106.418V34.6587H112.808V36.5281H108.298V39.27H112.307V41.1394H108.298V44.0059H112.933V45.7507H113.058ZM122.705 34.6587H124.96L121.202 40.0178L125.085 45.6261H122.83L119.949 41.5133L117.067 45.6261H114.812L118.696 40.0178L114.938 34.6587H117.193L119.949 38.6468L122.705 34.6587ZM136.486 45.7507H134.481V41.0148H129.47V45.7507H127.466V34.6587H129.47V39.1454H134.607V34.6587H136.486V45.7507ZM139.367 40.267C139.367 38.6468 139.869 37.2759 140.996 36.1543C142.124 35.0326 143.502 34.5341 145.13 34.5341C146.759 34.5341 148.137 35.0326 149.265 36.1543C150.392 37.2759 150.893 38.6468 150.893 40.267C150.893 41.8872 150.392 43.2581 149.265 44.3798C148.137 45.5014 146.759 46 145.13 46C143.502 46 142.124 45.5014 140.996 44.3798C139.869 43.2581 139.367 41.8872 139.367 40.267ZM141.372 40.267C141.372 41.3887 141.748 42.2611 142.374 43.0089C143.001 43.7566 144.003 44.1305 145.005 44.1305C146.133 44.1305 147.01 43.7566 147.761 43.0089C148.388 42.2611 148.764 41.3887 148.764 40.267C148.764 39.1454 148.388 38.1483 147.636 37.5252C146.884 36.7774 146.007 36.4035 145.005 36.4035C143.878 36.4035 143.001 36.7774 142.374 37.5252C141.748 38.1483 141.372 39.1454 141.372 40.267ZM161.918 45.7507H160.039V36.5281H156.782L156.531 38.6468C156.406 39.8931 156.28 41.0148 156.03 41.8872C155.779 42.7596 155.654 43.5074 155.403 44.0059C155.153 44.5044 154.902 45.0029 154.526 45.2522C154.151 45.5014 153.9 45.7507 153.524 45.7507C153.148 45.8753 152.773 45.8753 152.271 45.7507V43.8813C152.522 43.8813 152.647 43.8813 152.898 43.8813C153.023 43.8813 153.274 43.632 153.399 43.3827C153.65 43.1335 153.775 42.7596 153.9 42.2611C154.276 41.1394 154.526 39.3946 154.777 36.902L154.902 34.6587H161.918V45.7507ZM164.8 40.267C164.8 38.6468 165.301 37.2759 166.428 36.1543C167.556 35.0326 168.934 34.5341 170.563 34.5341C172.191 34.5341 173.569 35.0326 174.697 36.1543C175.824 37.2759 176.325 38.6468 176.325 40.267C176.325 41.8872 175.824 43.2581 174.697 44.3798C173.569 45.5014 172.191 46 170.563 46C168.934 46 167.556 45.5014 166.428 44.3798C165.301 43.2581 164.8 41.8872 164.8 40.267ZM166.929 40.267C166.929 41.3887 167.305 42.2611 167.932 43.0089C168.558 43.7566 169.56 44.1305 170.563 44.1305C171.69 44.1305 172.567 43.7566 173.319 43.0089C173.945 42.2611 174.321 41.3887 174.321 40.267C174.321 39.1454 173.945 38.1483 173.193 37.5252C172.442 36.7774 171.565 36.4035 170.563 36.4035C169.435 36.4035 168.558 36.7774 167.932 37.5252C167.18 38.1483 166.929 39.1454 166.929 40.267ZM181.211 45.7507H179.207V34.6587H185.471V36.5281H181.211V45.7507ZM190.106 45.7507H188.102V34.6587H190.106V45.7507ZM192.988 32.7893C192.988 32.54 193.113 32.2908 193.238 32.0415C193.489 31.9169 193.74 31.7922 193.99 31.7922C194.241 31.7922 194.491 31.9169 194.742 32.0415C194.992 32.1661 194.992 32.4154 194.992 32.7893C194.992 33.1632 194.867 33.4124 194.742 33.537C194.617 33.6617 194.366 33.7863 193.99 33.7863C193.74 33.7863 193.489 33.6617 193.238 33.537C193.113 33.2878 192.988 33.0385 192.988 32.7893ZM196.245 45.7507H194.241V34.6587H196.245V45.7507ZM195.619 32.7893C195.619 32.54 195.744 32.2908 195.869 32.0415C196.12 31.9169 196.37 31.7922 196.621 31.7922C196.872 31.7922 197.122 31.9169 197.373 32.0415C197.623 32.2908 197.623 32.4154 197.623 32.7893C197.623 33.1632 197.498 33.4124 197.373 33.537C197.247 33.7863 196.997 33.7863 196.621 33.7863C196.245 33.7863 195.995 33.6617 195.869 33.537C195.744 33.2878 195.619 33.0385 195.619 32.7893ZM211.905 43.2581L212.657 44.7537C212.281 45.1275 211.78 45.3768 211.154 45.6261C210.527 45.8753 209.776 46 209.149 46C207.395 46 206.017 45.5014 205.015 44.3798C204.013 43.3827 203.386 42.0118 203.386 40.267C203.386 38.6468 203.887 37.2759 204.89 36.1543C205.892 35.0326 207.27 34.5341 209.024 34.5341C210.402 34.5341 211.53 34.908 212.406 35.6557L211.53 37.1513C210.778 36.6528 209.901 36.4035 209.024 36.4035C208.022 36.4035 207.145 36.7774 206.393 37.4005C205.767 38.1483 205.391 39.0207 205.391 40.267C205.391 41.3887 205.767 42.3857 206.393 43.1335C207.145 43.8813 208.022 44.2551 209.149 44.2551C210.277 44.1305 211.154 43.8813 211.905 43.2581ZM224.183 45.7507H222.304V41.0148H217.167V45.7507H215.163V34.6587H217.167V39.1454H222.304V34.6587H224.183V45.7507ZM235.082 34.6587H237.087L233.328 43.1335C232.953 44.0059 232.451 44.629 232.076 45.1276C231.575 45.5014 231.073 45.7507 230.322 45.7507C229.57 45.7507 229.194 45.6261 228.818 45.2522L229.445 43.632C229.695 43.7566 229.946 43.8813 230.322 43.8813C230.823 43.8813 231.199 43.632 231.449 43.1335L231.575 42.7596L226.689 34.6587H228.944L232.577 40.8902L235.082 34.6587Z" fill="white"/>
<path id="Vector_2" d="M92.6439 15.715L103.418 28.8011H96.5276L87.8832 17.9583V28.8011H82.4961V4.24914H87.8832V14.2195L96.1518 4.24914H102.792L92.6439 15.715ZM202.516 9.35893H210.032V28.8011H215.42V9.35893H222.936V4.24914H202.39V9.35893H202.516ZM118.953 18.9554L126.595 28.8011H120.08L113.691 20.077H111.687V28.8011H106.3V4.24914H106.926C108.053 4.24914 109.306 4.24914 110.684 4.24914C112.062 4.24914 113.19 4.24914 114.067 4.24914C121.584 4.24914 123.213 8.48653 123.213 12.1008C123.213 13.9702 122.711 15.5904 121.709 16.8367C120.832 17.7091 119.955 18.4569 118.953 18.9554ZM112.313 9.35893C112.062 9.35893 111.937 9.35893 111.687 9.35893V14.9672H113.691C114.819 14.9672 115.821 14.718 116.573 14.0948C117.199 13.5963 117.575 12.8485 117.575 11.9761C117.575 10.7299 117.199 9.2343 113.816 9.2343C113.691 9.2343 113.566 9.2343 113.315 9.2343C113.065 9.35893 112.689 9.35893 112.313 9.35893ZM193.871 4.24914L204.27 28.8011H198.507L196.126 22.8189H186.981L184.6 28.8011H179.088L189.361 4.24914H193.871ZM191.491 11.7269L188.985 17.7091H193.996L191.491 11.7269ZM249.496 16.5874C249.496 20.2017 248.243 23.3174 245.863 25.6853C243.483 28.0533 240.351 29.2996 236.717 29.2996C233.084 29.2996 229.952 28.1779 227.572 25.81C225.192 23.442 223.939 20.4509 223.939 16.7121C223.939 13.2224 225.192 10.1067 227.572 7.73876C229.952 5.3708 233.084 4.12451 236.717 4.12451C240.351 4.12451 243.483 5.24617 245.863 7.61413C248.243 9.73282 249.496 12.8485 249.496 16.5874ZM241.979 21.9465C243.357 20.4509 243.984 18.7061 243.984 16.4628C243.984 14.2195 243.357 12.4747 241.854 10.9791C240.476 9.60819 238.722 8.86042 236.717 8.86042C234.588 8.86042 232.959 9.60819 231.581 10.9791C230.203 12.35 229.576 14.2195 229.576 16.4628C229.576 18.7061 230.203 20.4509 231.581 21.8218C232.959 23.3174 234.588 23.9405 236.717 23.9405C238.972 24.0652 240.601 23.442 241.979 21.9465ZM176.081 4.24914L169.817 20.4509L163.303 4.24914H157.54L167.687 28.8011H171.696L181.594 4.24914H176.081Z" fill="white"/>
<g id="heart">
<path id="XMLID_1_" d="M153.101 6.49432C151.594 4.99773 149.584 4.12472 147.449 4.12472C145.314 4.12472 143.305 4.99773 141.798 6.49432L141.421 6.86847L140.918 6.3696C139.411 4.87301 137.402 4 135.267 4C133.131 4 131.122 4.87301 129.615 6.3696C128.108 7.8662 127.229 9.86165 127.229 11.9818C127.229 14.102 128.108 16.0975 129.615 17.594L140.542 28.4443C140.793 28.6938 141.044 28.8185 141.421 28.8185C141.798 28.8185 142.049 28.6938 142.3 28.4443L153.227 17.594C154.734 16.0975 155.613 14.102 155.613 11.9818C155.613 9.86165 154.734 7.99091 153.101 6.49432Z" fill="#00B5FF"/>
<g id="Mask group">
<mask id="mask0_79_2191" style="mask-type:alpha" maskUnits="userSpaceOnUse" x="127" y="4" width="29" height="25">
<path id="XMLID_1__2" d="M153.101 6.49432C151.594 4.99773 149.584 4.12472 147.449 4.12472C145.314 4.12472 143.305 4.99773 141.798 6.49432L141.421 6.86847L140.918 6.3696C139.411 4.87301 137.402 4 135.267 4C133.131 4 131.122 4.87301 129.615 6.3696C128.108 7.8662 127.229 9.86165 127.229 11.9818C127.229 14.102 128.108 16.0975 129.615 17.594L140.542 28.4443C140.793 28.6938 141.044 28.8185 141.421 28.8185C141.798 28.8185 142.049 28.6938 142.3 28.4443L153.227 17.594C154.734 16.0975 155.613 14.102 155.613 11.9818C155.613 9.86165 154.734 7.99091 153.101 6.49432Z" fill="#00B5FF"/>
</mask>
<g mask="url(#mask0_79_2191)">
<rect id="Rectangle 1" x="126.293" y="14.3228" width="30.0675" height="15.0844" fill="#FFBC00"/>
</g>
</g>
</g>
</g>
<g id="sign">
<path id="Vector_3" d="M7.23477 18.4V44.8C7.23477 45.52 6.75246 46 6.02898 46H1.2058C0.482318 46 0 45.52 0 44.8V18.4C0 17.68 0.482318 17.2 1.2058 17.2H6.02898C6.75246 17.2 7.23477 17.8 7.23477 18.4ZM72.7942 17.2H67.971C67.2476 17.2 66.7652 17.68 66.7652 18.4V44.8C66.7652 45.52 67.2476 46 67.971 46H72.7942C73.5177 46 74 45.52 74 44.8V18.4C74 17.8 73.5177 17.2 72.7942 17.2Z" fill="#FFBC57"/>
<path id="Vector_4" d="M64.3538 25.6V32.8C64.3538 33.52 63.8714 34 63.148 34H10.8523C10.1288 34 9.64648 33.52 9.64648 32.8V25.6C9.64648 24.88 10.1288 24.4 10.8523 24.4H63.148C63.8714 24.4 64.3538 24.88 64.3538 25.6ZM10.8523 22H25.0687C25.7922 22 26.2745 21.52 26.2745 20.8V5.2C26.2745 4.48 25.7922 4 25.0687 4H10.8523C10.1288 4 9.64648 4.48 9.64648 5.2V20.8C9.64648 21.52 10.1288 22 10.8523 22ZM29.8919 22H44.1083C44.8318 22 45.3141 21.52 45.3141 20.8V5.2C45.3141 4.48 44.8318 4 44.1083 4H29.8919C29.1684 4 28.6861 4.48 28.6861 5.2V20.8C28.6861 21.52 29.1684 22 29.8919 22ZM63.148 4H48.9315C48.208 4 47.7257 4.48 47.7257 5.2V20.8C47.7257 21.52 48.208 22 48.9315 22H63.148C63.8714 22 64.3538 21.52 64.3538 20.8V5.2C64.3538 4.48 63.8714 4 63.148 4ZM63.148 36.4H10.8523C10.1288 36.4 9.64648 36.88 9.64648 37.6V44.8C9.64648 45.52 10.1288 46 10.8523 46H17.8339C18.5574 46 19.0397 45.52 19.0397 44.8V43.6H54.9605V44.8C54.9605 45.52 55.4428 46 56.1663 46H63.148C63.8714 46 64.3538 45.52 64.3538 44.8V37.6C64.3538 36.88 63.8714 36.4 63.148 36.4Z" fill="#FFBC57"/>
</g>
</g>
</g>
</svg>
